<svg width="48" height="48" viewBox="0 0 48 48" fill="none" xmlns="http://www.w3.org/2000/svg">
<mask id="path-1-inside-1_7_1958" fill="white">
<path d="M0 17.0367C0 2.05753 15 -1.57133 24 5.55301C32 -1.56927 48 2.06241 48 16.038C48 29.0585 34.1122 41.174 25.7446 45.2384C24.6391 45.7754 23.361 45.7751 22.2552 45.2388C13.8876 41.1799 0 29.1365 0 17.0367Z"/>
</mask>
<path d="M0 17.0367C0 2.05753 15 -1.57133 24 5.55301C32 -1.56927 48 2.06241 48 16.038C48 29.0585 34.1122 41.174 25.7446 45.2384C24.6391 45.7754 23.361 45.7751 22.2552 45.2388C13.8876 41.1799 0 29.1365 0 17.0367Z" fill="black"/>
<path d="M24 5.55301L20.8967 9.47338L24.1888 12.0794L27.3247 9.28746L24 5.55301ZM22.2552 45.2388L24.4374 40.7401H24.4374L22.2552 45.2388ZM25.7446 45.2384L23.56 40.7409L23.56 40.7409L25.7446 45.2384ZM27.1033 1.63264C21.2668 -2.9875 13.408 -4.20964 6.81839 -1.65617C-0.0970779 1.02358 -5 7.60971 -5 17.0367H5C5 11.4845 7.59708 8.76662 10.4316 7.66824C13.592 6.44357 17.7332 6.96917 20.8967 9.47338L27.1033 1.63264ZM-5 17.0367C-5 24.9068 -0.570635 32.1041 4.26971 37.4939C9.19347 42.9766 15.2713 47.4083 20.073 49.7374L24.4374 40.7401C20.8715 39.0104 15.8218 35.3909 11.7098 30.8122C7.51445 26.1407 5 21.2664 5 17.0367H-5ZM27.9292 49.7359C32.7425 47.3979 38.8361 42.9327 43.7734 37.2888C48.6609 31.7018 53 24.2804 53 16.038H43C43 20.8161 40.3951 25.9627 36.2469 30.7046C32.1483 35.3897 27.1143 39.0145 23.56 40.7409L27.9292 49.7359ZM53 16.038C53 6.75637 47.4941 0.579258 40.664 -1.83118C34.1481 -4.13074 26.188 -3.08933 20.6753 1.81855L27.3247 9.28746C29.812 7.07307 33.8519 6.36919 37.336 7.59879C40.5059 8.71752 43 11.344 43 16.038H53ZM20.073 49.7374C22.5561 50.9419 25.4436 50.9432 27.9292 49.7359L23.56 40.7409C23.8346 40.6075 24.1659 40.6084 24.4374 40.7401L20.073 49.7374Z" fill="black" mask="url(#path-1-inside-1_7_1958)"/>
</svg>
