<svg width="48" height="48" viewBox="0 0 48 48" fill="none" xmlns="http://www.w3.org/2000/svg">
<path fill-rule="evenodd" clip-rule="evenodd" d="M15.6758 5.0121C20.5 0.995968 27.5 0.995968 32.3242 5.0121L45.1211 15.6568C46.2539 16.6004 47.0898 17.8247 47.5586 19.1816C47.8477 20.016 48 20.8972 48 21.7941V40.0109C48 43.3174 45.3125 46 42 46H34C31.7909 46 30 44.2091 30 42V33.0236C30 29.7171 27.3125 27.0345 24 27.0345C21.8711 27.0345 19.9961 28.1419 18.9297 29.8185C18.3398 30.7465 18 31.8461 18 33.0236V42C18 44.2091 16.2091 46 14 46H6C2.6875 46 0 43.3174 0 40.0109V21.7941C0 19.4234 1.05469 17.1775 2.87891 15.6568L15.6758 5.0121Z" fill="black"/>
</svg>
