<svg width="48" height="48" viewBox="0 0 48 48" fill="none" xmlns="http://www.w3.org/2000/svg">
<path d="M2.5 20.9026C2.5 19.8331 2.989 18.8223 3.82754 18.1585L19.3447 5.87402C22.0726 3.71448 25.9274 3.71448 28.6553 5.87402L44.1725 18.1585C45.011 18.8223 45.5 19.8331 45.5 20.9026V40C45.5 41.933 43.933 43.5 42 43.5H31C30.7239 43.5 30.5 43.2761 30.5 43V31.0078C30.5 27.418 27.5898 24.5078 24 24.5078C20.4101 24.5078 17.5 27.418 17.5 31.0078V43C17.5 43.2761 17.2761 43.5 17 43.5H6C4.067 43.5 2.5 41.933 2.5 40V20.9026Z" stroke="#B8B8B8" stroke-width="5" stroke-linejoin="round"/>
</svg>
