<svg width="48" height="48" viewBox="0 0 48 48" fill="none" xmlns="http://www.w3.org/2000/svg">
<path fill-rule="evenodd" clip-rule="evenodd" d="M37 21C37 29.8366 29.8366 37 21 37C12.1634 37 5 29.8366 5 21C5 12.1634 12.1634 5 21 5C29.8366 5 37 12.1634 37 21ZM33.9743 37.5138C30.4027 40.3238 25.8971 42 21 42C9.40202 42 0 32.598 0 21C0 9.40202 9.40202 0 21 0C32.598 0 42 9.40202 42 21C42 25.8991 40.3224 30.4064 37.5103 33.9787L46.766 43.2344C47.7423 44.2107 47.7423 45.7936 46.766 46.7699C45.7897 47.7462 44.2068 47.7462 43.2305 46.7699L33.9743 37.5138Z" fill="black"/>
</svg>
