<svg width="68" height="68" viewBox="0 0 68 68" fill="none" xmlns="http://www.w3.org/2000/svg">
<g id="Threads_(app)_logo 1" clip-path="url(#clip0_7_3770)">
<path id="Vector" d="M50.1275 31.5167C49.8346 31.3763 49.5371 31.2412 49.2357 31.1118C48.7109 21.4406 43.4263 15.9039 34.553 15.8472C34.5128 15.8469 34.4728 15.8469 34.4326 15.8469C29.1252 15.8469 24.7111 18.1124 21.9943 22.2348L26.8744 25.5825C28.9039 22.5031 32.0892 21.8467 34.435 21.8467C34.4621 21.8467 34.4893 21.8467 34.5161 21.8469C37.4377 21.8656 39.6424 22.715 41.0694 24.3716C42.1078 25.5777 42.8023 27.2443 43.1462 29.3476C40.5558 28.9073 37.7544 28.772 34.7595 28.9437C26.3232 29.4296 20.8996 34.3499 21.2639 41.1867C21.4487 44.6547 23.1764 47.6382 26.1285 49.5872C28.6244 51.2348 31.8391 52.0405 35.18 51.8581C39.5921 51.6162 43.0534 49.9329 45.4681 46.8548C47.302 44.5173 48.4619 41.4881 48.974 37.6713C51.0767 38.9403 52.635 40.6102 53.4957 42.6176C54.9591 46.03 55.0444 51.6375 50.4689 56.2091C46.4601 60.214 41.6413 61.9466 34.3588 62.0001C26.2805 61.9402 20.171 59.3495 16.1987 54.2998C12.4791 49.5713 10.5567 42.7415 10.485 34C10.5567 25.2584 12.4791 18.4286 16.1987 13.7001C20.171 8.65049 26.2804 6.05979 34.3587 5.99976C42.4956 6.06025 48.7116 8.66341 52.8358 13.7374C54.8581 16.2256 56.3828 19.3548 57.3879 23.0032L63.1067 21.4774C61.8883 16.9866 59.9712 13.1168 57.3624 9.90746C52.0751 3.40237 44.3422 0.0691149 34.3786 0H34.3387C24.3954 0.0688748 16.7491 3.4148 11.6124 9.94475C7.04134 15.7556 4.68348 23.841 4.60425 33.9761L4.604 34L4.60425 34.0239C4.68348 44.1589 7.04134 52.2445 11.6124 58.0554C16.7491 64.5851 24.3954 67.9313 34.3387 68H34.3786C43.2188 67.9387 49.45 65.6243 54.5833 60.4956C61.2994 53.7859 61.0971 45.3755 58.8836 40.2124C57.2955 36.51 54.2677 33.5028 50.1275 31.5167ZM34.8642 45.8671C31.1667 46.0753 27.3254 44.4157 27.1359 40.8609C26.9956 38.2252 29.0117 35.2842 35.0911 34.9339C35.7873 34.8937 36.4705 34.8741 37.1417 34.8741C39.3499 34.8741 41.4157 35.0886 43.2939 35.4992C42.5933 44.2478 38.4843 45.6684 34.8642 45.8671Z" fill="black"/>
</g>
<defs>
<clipPath id="clip0_7_3770">
<rect width="68" height="68" fill="white"/>
</clipPath>
</defs>
</svg>
