<svg width="48" height="48" viewBox="0 0 48 48" fill="none" xmlns="http://www.w3.org/2000/svg">
<path fill-rule="evenodd" clip-rule="evenodd" d="M23.2322 24.7678C22.2559 23.7915 22.2559 22.2085 23.2322 21.2322L40.2322 4.23223C41.2085 3.25592 42.7915 3.25592 43.7678 4.23223C44.7441 5.20854 44.7441 6.79146 43.7678 7.76777L26.7678 24.7678C25.7915 25.7441 24.2085 25.7441 23.2322 24.7678Z" fill="black"/>
<path fill-rule="evenodd" clip-rule="evenodd" d="M16.5 7C11.2533 7 7 11.2533 7 16.5V31.5C7 36.7467 11.2533 41 16.5 41H31.5C36.7467 41 41 36.7467 41 31.5V24C41 22.6193 42.1193 21.5 43.5 21.5C44.8807 21.5 46 22.6193 46 24V31.5C46 39.5081 39.5081 46 31.5 46H16.5C8.49187 46 2 39.5081 2 31.5V16.5C2 8.49187 8.49187 2 16.5 2H24C25.3807 2 26.5 3.11929 26.5 4.5C26.5 5.88071 25.3807 7 24 7H16.5Z" fill="black"/>
</svg>
